# xmcd CD database file
#
# Track frame offsets:
#	183
#	11368
#	22103
#	30803
#	42590
#	49433
#	61508
#	72098
#	83170
#	93583
#	103930
#	112813
#
# Disc length: 1634 seconds
#
# Revision: 0
# Processed by: cddbd v1.4PL0 Copyright (c) Steve Scherf et al.
# Submitted via: CDex 1.40Release
#
DISCID=9006600c
DTITLE=Waylon Jennings - Crying and Other Great Hits
DYEAR=1900
DGENRE=Country
TTITLE0=Sally was a good old girl
TTITLE1=Dream baby
TTITLE2=Love's gonna live here
TTITLE3=Crying
TTITLE4=It's so easy
TTITLE5=Don't think twice
TTITLE6=Burning memories
TTITLE7=Big Mamou
TTITLE8=Lorena
TTITLE9=White lightnin'
TTITLE10=Jole Blom
TTITLE11=Sweet mental revenge
EXTD=ID3G: 2
EXTT0=
EXTT1=
EXTT2=
EXTT3=
EXTT4=
EXTT5=
EXTT6=
EXTT7=
EXTT8=
EXTT9=
EXTT10=
EXTT11=
PLAYORDER=
